<svg width="44" height="44" viewBox="0 0 44 44" fill="none" xmlns="http://www.w3.org/2000/svg">
<path d="M22 0.333252C19.1547 0.333252 16.3373 0.893677 13.7086 1.98253C11.0798 3.07138 8.69133 4.66734 6.67939 6.67927C2.61611 10.7426 0.333374 16.2536 0.333374 21.9999C0.333374 27.7463 2.61611 33.2573 6.67939 37.3206C8.69133 39.3325 11.0798 40.9285 13.7086 42.0173C16.3373 43.1062 19.1547 43.6666 22 43.6666C27.7464 43.6666 33.2574 41.3839 37.3207 37.3206C41.384 33.2573 43.6667 27.7463 43.6667 21.9999C43.6667 19.1546 43.1063 16.3372 42.0174 13.7084C40.9286 11.0797 39.3326 8.69121 37.3207 6.67927C35.3088 4.66734 32.9202 3.07138 30.2915 1.98253C27.6628 0.893677 24.8453 0.333252 22 0.333252ZM31.1 31.0999L19.8334 24.1666V11.1666H23.0834V22.4333L32.8334 28.2832L31.1 31.0999Z" fill="#F9EBEB"/>
</svg>
