<svg width="52" height="52" viewBox="0 0 52 52" fill="none" xmlns="http://www.w3.org/2000/svg">
<path d="M10.6795 35.4866C6.75784 36.6631 4.33334 38.2881 4.33334 40.0832C4.33334 43.6733 14.0335 46.5832 26 46.5832C37.9665 46.5832 47.6667 43.6733 47.6667 40.0832C47.6667 38.2881 45.2411 36.6631 41.3205 35.4866" stroke="#F9EBEB" stroke-width="4" stroke-linecap="round" stroke-linejoin="round"/>
<path d="M26 37.9166C26 37.9166 40.0834 28.7126 40.0834 18.0721C40.0834 10.4844 33.7784 4.33325 26 4.33325C18.2217 4.33325 11.9167 10.4844 11.9167 18.0721C11.9167 28.7126 26 37.9166 26 37.9166Z" stroke="#F9EBEB" stroke-width="4" stroke-linejoin="round"/>
<path d="M26 23.8333C27.4366 23.8333 28.8144 23.2627 29.8302 22.2468C30.846 21.231 31.4167 19.8533 31.4167 18.4167C31.4167 16.9801 30.846 15.6023 29.8302 14.5865C28.8144 13.5707 27.4366 13 26 13C24.5634 13 23.1857 13.5707 22.1698 14.5865C21.154 15.6023 20.5833 16.9801 20.5833 18.4167C20.5833 19.8533 21.154 21.231 22.1698 22.2468C23.1857 23.2627 24.5634 23.8333 26 23.8333Z" stroke="#F9EBEB" stroke-width="4" stroke-linejoin="round"/>
</svg>
